# xmcd
#
# Track frame offsets: 
#        150
#        19278
#        40631
#        67266
#        93634
#        114271
#        130585
#        142377
#        163585
#        181086
#        209483
#        225911
#        249890
#        276442
#        302476
#        330305
#
# Disc length: 4725 seconds
#
# Revision: 0
# Processed by: cddbd v1.5.2PL0 Copyright (c) Steve Scherf et al.
# Submitted via: ExactAudioCopyFreeDBPlugin 1.0
#
DISCID=da127310
DTITLE=Bliuzoholikai - Bliuzoholikai
DYEAR=2018
DGENRE=Blues
TTITLE0=Pasakyk man, teve
TTITLE1=Vienisas vilkas
TTITLE2=Miestas
TTITLE3=Dumblio bliuzas
TTITLE4=Kazkas tarp musu negerai
TTITLE5=Piemuo
TTITLE6=Mano draugas
TTITLE7=Priklausomybe
TTITLE8=Kelyje
TTITLE9=Depresija
TTITLE10=Reda pupa
TTITLE11=Metaksa Blues
TTITLE12=Mama ciao
TTITLE13=Metai
TTITLE14=Kai tu ateisi
TTITLE15=Gyventi gera
EXTD=
EXTT0=
EXTT1=
EXTT2=
EXTT3=
EXTT4=
EXTT5=
EXTT6=
EXTT7=
EXTT8=
EXTT9=
EXTT10=
EXTT11=
EXTT12=
EXTT13=
EXTT14=
EXTT15=
PLAYORDER=
